<svg xmlns="http://www.w3.org/2000/svg" width="457.313" height="467.419" viewBox="0 0 457.313 467.419"><defs><style>.a{fill:#fff;}.b{stroke:#fff;}</style></defs><g transform="translate(719.25 -89.723)"><g transform="translate(-678.256 197.76)"><path class="a" d="M-239.2,528.758l13.609,8.68C-225.605,535.217-236.381,528.512-239.2,528.758Z" transform="translate(493.675 -366.568)"/><path class="a" d="M-363.61,516.909a26.874,26.874,0,0,0-4.009-.029l-.036.683a9.327,9.327,0,0,0,1.768.391c4.612.129,8.561,1.7,11.264,5.548a17.339,17.339,0,0,1,2.94,5.837,15.392,15.392,0,0,1-.318,6.116c-2.1,10.772-6.774,20.505-12.3,29.879-.383.649-.719,1.326-1.076,1.99l.546.409a5.978,5.978,0,0,0,1.376-1.19c1.635-2.682,3.188-5.416,4.784-8.122.479-.812.827-1.957,1.551-2.32a10.688,10.688,0,0,0,4.637-5.133c1.476-2.9,2.8-5.882,4.2-8.823.166-.349.371-.9.63-.945a8.294,8.294,0,0,1,2.841-.153c.588.105,1.077.769,1.732,1.276L-342,541.4c-1.585-.6-2.667-1.789-4.378-1.219-.19.063-.964-.782-.987-1.23-.06-1.188.222-2.39.228-3.586.014-2.55-.934-4.792-1.918-7.145C-351.821,521.609-356.676,517.967-363.61,516.909Z" transform="translate(543.067 -361.977)"/><path class="a" d="M-262.565,430.8c-.15-.294-.548-.46-.832-.686a3.654,3.654,0,0,0-.367,1.019,2.087,2.087,0,0,0,.279,1c1.678,3.237,3.171,6.594,5.125,9.657s4.187,6.018,7.684,7.638c1.683.779,3.306,1.688,4.936,2.577a4.862,4.862,0,0,1,.975.857,8.24,8.24,0,0,0,1.581,1.555c3.007,1.6,6.2,2.887,9.075,4.687,4.838,3.031,9.484,6.37,14.219,9.568.627.423,1.3.784,2.121,1.277l3.362,2.321.962.563.227.133,1.076.63,3.42,1.971a6.636,6.636,0,0,0,.788.454l.014.008h0c.747.377,1.837.852,3.454,1.611-.443-1.339-.853-2.6-1.278-3.86-.587-1.734-.813-2.253-1.784-2.187v-.01L-212.6,468c-1.565-1.164-3.106-2.36-4.7-3.477a30.29,30.29,0,0,0-3.438-2.128q-7.75-3.994-15.547-7.895c-3.714-1.851-7.606-3.389-11.155-5.508-1.763-1.053-4.579-1.027-5.049-3.87-.031-.187-.371-.315-.551-.487a35.546,35.546,0,0,1-7.251-9.149C-261.094,433.95-261.775,432.346-262.565,430.8Z" transform="translate(503.121 -328.642)"/><path class="a" d="M-337.177,455.715c-.026.121-.054.241-.08.361a3.753,3.753,0,0,0,.745.549c1.758.724,3.885-.156,5.413,2.119.939,1.4,3.268,1.472,5.431.622a5.373,5.373,0,0,1,5.377.664c1.023.8,2.609.889,3.957,1.238a.943.943,0,0,0,.729-.359c.092-.111-.03-.611-.131-.636a3.17,3.17,0,0,1-2.243-2.167c-.083-.214-.611-.3-.948-.362-.786-.149-1.59-.208-2.368-.385-.339-.078-.854-.308-.906-.552-.244-1.14-1.1-1.351-2.014-1.477q-3.942-.546-7.892-1.025a7.436,7.436,0,0,0-1.318.065c-.009.115-.017.229-.025.343l1.318.668-.046.333Z" transform="translate(531.378 -337.937)"/><path class="a" d="M-282.451,477.73c-.911-.2-1.83-.378-2.73-.623a3.722,3.722,0,0,1-1.088-.548c-.478-.327-.865-.865-1.383-1.04a24.408,24.408,0,0,0-3.074-.692c-2.411-.477-4.818-.976-7.243-1.371-.4-.065-.885.35-1.33.543.393.289.752.744,1.187.834,1.356.28,2.74.422,4.1.615-.228,2.036-.212,2.056,1.718,2.273,1.246.141,2.493.279,3.931.441-1.179,1.521-1.029,2.04.407,2.31.983.185,1.982.287,2.975.415,3.035.394,6.069.8,9.109,1.15a2.581,2.581,0,0,0,1.173-.382c.027-.012-.055-.535-.2-.626a2.85,2.85,0,0,0-1.112-.395c-2.191-.263-4.393-.447-6.577-.76-.522-.074-.989-.536-1.818-1.013l1.793-.6C-282.56,478.084-282.5,477.907-282.451,477.73Z" transform="translate(516.783 -345.304)"/><path class="a" d="M-366.384,554.633a13.23,13.23,0,0,0,2.532-1.844,32.2,32.2,0,0,0,7.465-12.557c.257-.807.4-1.651.665-2.78l-.98-1.462a17.6,17.6,0,0,0-.836,1.56,18.532,18.532,0,0,1-1.147,2.924c-1.951,3.032-4.043,5.973-6.034,8.98-.937,1.416-1.781,2.9-2.624,4.371-.119.207-.083.744.033.8A1.123,1.123,0,0,0-366.384,554.633Z" transform="translate(542.974 -369.351)"/><path class="a" d="M-560.971,529.255a15.481,15.481,0,0,0,9.581,3.01c.366,0,.732-.3,1.1-.468-.3-.274-.561-.674-.916-.8a27.115,27.115,0,0,1-3.715-1.167c-3.265-1.719-6.451-3.589-9.653-5.428a14.3,14.3,0,0,1-5.849-6.478,3.777,3.777,0,0,0-.664-.764l-.525-.01c-.094.559-.46,1.291-.233,1.646a22.855,22.855,0,0,0,3.519,4.811C-566.049,525.682-563.44,527.392-560.971,529.255Z" transform="translate(621.607 -362.108)"/><path class="a" d="M-366.733,501.7a1.735,1.735,0,0,0-.659.917,8.188,8.188,0,0,0,2.5,2.154c2.437.88,4.987,1.448,7.492,2.141l-.011.231-3.762-.351-.073.475a2.624,2.624,0,0,0,.71.444c2.724.637,5.448,1.272,8.188,1.837.39.081.857-.208,1.288-.326a4.091,4.091,0,0,0-.613-1.4,3.417,3.417,0,0,0-1.482-.675c-1.919-.519-3.854-.981-5.777-1.488a11.737,11.737,0,0,1-1.271-.491q.065-.212.13-.425l3.408.809.339-.5a6.006,6.006,0,0,1-.6-.151c-2.877-1.03-5.748-2.074-8.63-3.087A1.781,1.781,0,0,0-366.733,501.7Z" transform="translate(542.967 -356.141)"/><path class="a" d="M-120.284,526.624c-1.376.2-2.765.311-4.148.46l.057.6a15.525,15.525,0,0,1,2.7.025,7.6,7.6,0,0,0,6.434-1.771,69.556,69.556,0,0,0,7.238-6.722,28.071,28.071,0,0,0,3.309-5.624c.2-.375.029-.949.029-1.777-.561.407-.719.47-.793.586a6.846,6.846,0,0,0-.408.8,31.16,31.16,0,0,1-11.33,12.725A7.712,7.712,0,0,1-120.284,526.624Z" transform="translate(449.546 -360.057)"/><path class="a" d="M-387.979,535.381c1.59-3.952,3.254-7.862,5.948-11.231a7.091,7.091,0,0,0,.588-1.051l-.379-.328a5.026,5.026,0,0,0-2.857,2.662q-3.192,6.627-6.2,13.34c-.753,1.686-.482,2.042,1.28,2.8.455.2.858.51,1.3.745,1.116.6,2.239,1.179,3.359,1.766l.277-.561c-1.13-.693-2.218-1.472-3.4-2.058-1.592-.788-1.9-1.413-1.208-3.053C-388.848,537.4-388.389,536.4-387.979,535.381Z" transform="translate(552.149 -364.269)"/><path class="a" d="M-566.181,530.732a24.56,24.56,0,0,0-2.117-2.617l-.569.2a4.5,4.5,0,0,0,.178,1.6c1.6,3,3.265,5.96,4.93,8.922.575,1.023,1.209,2.012,1.949,3.236,1.06-1.136,1.117-1.976.566-2.914C-562.888,536.345-564.484,533.508-566.181,530.732Z" transform="translate(620.433 -366.323)"/><path class="a" d="M-550.953,527.329a75.849,75.849,0,0,1-14.864-9.339C-566.537,520.562-554.428,528.25-550.953,527.329Z" transform="translate(619.273 -362.43)"/><path class="a" d="M-361.023,444.776a3.83,3.83,0,0,0-1.374.448c.375.25.725.659,1.129.723,2.229.351,4.467.652,6.711.888a2.278,2.278,0,0,0,1.653-.339c.9-.919,1.776-.56,2.725-.273a12.633,12.633,0,0,0,1.36.262l.087-.527a41.2,41.2,0,0,0-10.7-2.376l-.179.519,1.962.882c-.016.115-.033.23-.049.345C-358.8,445.131-359.9,444.872-361.023,444.776Z" transform="translate(541.045 -333.819)"/><path class="a" d="M-250.988,419.67a3.192,3.192,0,0,0-.875.666,3.044,3.044,0,0,0-.423,1.266c-.206,1.832-.361,3.67-.547,5.623.188,1.891.339,3.883.62,5.856.059.414.6.759.92,1.137a4,4,0,0,0,.493-1.359c-.068-1.986-.364-3.971-.334-5.952.03-2.033.366-4.06.508-6.093A3.362,3.362,0,0,0-250.988,419.67Z" transform="translate(498.917 -324.626)"/><path class="a" d="M-217.724,569.371c-1,.893-1.886,1.915-2.824,2.878l.385.475a8.962,8.962,0,0,0,1.819-1.259,76.1,76.1,0,0,0,5.927-7.135,17.1,17.1,0,0,0,2.019-5.378c.228-.888-.268-1.835-1.259-1.733-.125,1.511.063,2.952-.4,4.138A20.9,20.9,0,0,1-217.724,569.371Z" transform="translate(486.503 -377.511)"/><path class="a" d="M-154.718,477.953c1.643-3.993,4.625-6.984,7.511-10.05a15.615,15.615,0,0,0,1.079-1.536c-.649.182-.874.179-1,.289-3.1,2.841-6.3,5.608-8.4,9.337a12.168,12.168,0,0,0-.779,2.562l1.066.79C-155.061,478.881-154.906,478.41-154.718,477.953Z" transform="translate(461.799 -342.581)"/><path class="a" d="M-401.913,597.2c-.862-.422-1.771-.747-2.869-1.2.114.5.1.695.185.768a14.641,14.641,0,0,0,8.9,3.479c.463.02.948-.492,1.423-.757-.356-.263-.75-.79-1.064-.746C-397.747,599.075-399.836,598.213-401.913,597.2Z" transform="translate(557.342 -392.423)"/><path class="a" d="M-359.1,530.556c-.007-1.826-7.737-7.126-9.729-6.7,1.684,1.083,3.336,2.09,4.927,3.185C-362.284,528.153-360.731,529.354-359.1,530.556Z" transform="translate(543.516 -364.677)"/><path class="a" d="M-445.758,572.456a15.9,15.9,0,0,0-2.281-1.289c-.2-.076-.667.559-1.2,1.038l-3.362-.916c-.024.241-.077.394-.037.424a7.9,7.9,0,0,0,6.138,1.643C-446.217,573.312-446,572.768-445.758,572.456Z" transform="translate(575.75 -382.874)"/><path class="a" d="M-190.477,520.728l-.047.022-1.237,1.872a2.824,2.824,0,0,0-.48.727c-.14.58-.212,1.177-.312,1.767.183.02.509.1.527.053.088-.217.169-.437.252-.657l0,.006,1.259-1.893,5.466-7.194A17.352,17.352,0,0,0-190.477,520.728Z" transform="translate(475.739 -361.447)"/><path class="a" d="M-440.387,579.818h-8.4C-446.628,581.141-441.8,581.259-440.387,579.818Z" transform="translate(574.261 -386.203)"/><path class="a" d="M-226.424,561.416a28.546,28.546,0,0,1,2.394-2.167l-.238-.291c-1.3.79-2.656,1.513-3.892,2.4a5.121,5.121,0,0,0-1.49,1.821c-.165.326.178.91.292,1.376a4.429,4.429,0,0,0,1.25-.749C-227.487,563.058-227.069,562.136-226.424,561.416Z" transform="translate(490.02 -378.183)"/><path class="a" d="M-415.234,586.234c.474,1.7,4.1,5.147,5.964,5.237l-5.6-5.629Z" transform="translate(561.361 -388.52)"/><path class="a" d="M-351.814,450.926c-.047.13.212.533.363.55,2.1.237,4.206.429,6.31.632l.114-.788c-2.075-.326-4.148-.666-6.229-.948C-351.425,450.349-351.73,450.694-351.814,450.926Z" transform="translate(536.978 -336.43)"/><path class="a" d="M-373.684,441.272c.248.2.484.551.748.574.991.082,1.992.049,2.988.076.457.012.913.065,1.369.1.033-.2.065-.41.1-.615-1.556-.246-3.109-.511-4.672-.709C-373.3,440.678-373.506,441.071-373.684,441.272Z" transform="translate(545.385 -332.711)"/><path class="a" d="M-431.793,321.875c-.049-.184-.345-.447-.511-.431-1.123.106-2.24.276-3.68.47,1.09.911,3.239,1.076,3.913.554A.738.738,0,0,0-431.793,321.875Z" transform="translate(569.34 -286.857)"/><path class="a" d="M-101.748,517.28l-.567-.418-3.077,4.1.593.438Z" transform="translate(442.225 -361.997)"/><path class="a" d="M-462.178,546.113c-.117.217-.16.661-.025.793.678.662,1.425,1.253,2.317,2.012.14-1.351-.824-2.861-1.627-2.967C-461.734,545.921-462.1,545.975-462.178,546.113Z" transform="translate(579.453 -373.178)"/><path class="a" d="M-364.335,442.781l2.935.681.185-.853-2.964-.588Q-364.257,442.4-364.335,442.781Z" transform="translate(541.79 -333.22)"/><path class="a" d="M-152.462,373.259a12.728,12.728,0,0,0,1.7-7.219c-.056-.636-.358-1.651-.769-1.781-1.279-.4-1.045-1.24-1.016-2.145a50.893,50.893,0,0,0,.117-8.1,23.514,23.514,0,0,0-5.844-12.793c-1.813-2.04-4.21-3.036-6.519-4.216l-.291.375c.2.248.357.585.617.731,3.182,1.8,5.183,4.648,7.029,7.673a24.506,24.506,0,0,1,3.548,15.142c-.158,1.948-.346,3.895-.451,5.846-.015.286.358.593.551.891a4.319,4.319,0,0,0,.593-.748c.263-.535.46-1.1.8-1.937.824,4.014-1.685,7.092-1.691,10.661A8.6,8.6,0,0,0-152.462,373.259Z" transform="translate(465.176 -292.84)"/><path class="a" d="M-177.731,330.979c-4.611-4.134-9.725-7.721-13.457-12.79-.357-.484-1.216-.6-1.842-.884l-.413.6a53.9,53.9,0,0,0,4.337,5.075c4.857,4.48,9.9,8.754,14.763,13.231a33.266,33.266,0,0,1,4.58,5.313,39.319,39.319,0,0,1,2.61,5.091c.2-.236.316-.307.321-.383a1.668,1.668,0,0,0-.036-.737c-1.032-2.265-1.726-4.8-3.224-6.71A63.249,63.249,0,0,0-177.731,330.979Z" transform="translate(476.081 -285.266)"/><path class="a" d="M-359.341,324.044c-.445,2.849-.015,5.855-1.413,8.535-1.367,2.621-2.794,5.211-4.177,7.825a13.6,13.6,0,0,0-.558,1.394c4.347-2.837,9.269-15.738,7.837-19.521C-358.916,322.2-359.173,322.967-359.341,324.044Z" transform="translate(542.234 -287.176)"/><path class="a" d="M-85.189,425.813a2.158,2.158,0,0,1-.809.617c-1.688.627-3.369,1.288-5.1,1.787-1.3.375-2.751.315-3.986.816-3.337,1.352-6.6,2.892-9.878,4.38a7.865,7.865,0,0,0-1.12.755l.273.562,22.871-8.57C-83.968,424.772-84.262,424.748-85.189,425.813Z" transform="translate(442.489 -326.699)"/><path class="a" d="M-138.6,380.369l-.4.068-3.831,17.3.591.148a58.755,58.755,0,0,0,2.1-5.994c.778-3.244,1.313-6.548,1.874-9.84A4.893,4.893,0,0,0-138.6,380.369Z" transform="translate(456.619 -309.514)"/><path class="a" d="M-140.2,404.321l-3.59,10.841C-141.322,414.375-139.262,407.915-140.2,404.321Z" transform="translate(456.988 -318.724)"/><path class="a" d="M-142.778,336.047l-10.087-4.151-.23.581c2.795,2.868,6.557,3.214,10.129,4.056Z" transform="translate(460.567 -290.876)"/><path class="a" d="M-92.115,478.878l.369.517c1.734-1.047,3.48-2.075,5.186-3.167.2-.127.173-.6.252-.918-.318-.019-.736-.18-.938-.036C-88.892,476.443-90.5,477.67-92.115,478.878Z" transform="translate(437.12 -345.983)"/><path class="a" d="M-111.119,440.149l-6.655,2.053C-115.94,443.026-111.873,441.651-111.119,440.149Z" transform="translate(446.986 -332.5)"/><path class="a" d="M-80.078,473.754l1-1.939-.273-.316-2.123,1.29Z" transform="translate(433.03 -344.554)"/><path class="a" d="M-259.3,381.42s-11.293,1.946-15.277,2.407c-12.321,1.428-17.785,4.717-17.785,4.717l.018,0q-1.439.656-2.88,1.31l.2.524a4.045,4.045,0,0,0,.878-.151q1.811-.738,3.619-1.486s17.833-4.5,17.833-3.487a7.247,7.247,0,0,1-5.232,6.42c-4.5,1.465-12.378,3.754-12.378,3.754-5.761,2.077-11.568,4.049-16.917,7.124-1.61.926-2.583-.589-3.5-1.287a53.048,53.048,0,0,1-5.94-5.5,20.179,20.179,0,0,1-2.33-3.439q-2.221-3.58-4.381-7.2a30.892,30.892,0,0,0-8.043-9.426,85.321,85.321,0,0,0-9.132-5.747c-6.314-3.486-12.7-6.824-18.579-11.053-4.52-3.252-9.183-6.3-13.79-9.435-2.354-1.6-4.824-3.047-7.057-4.8-2.106-1.651-3.879-3.723-5.962-5.405-2.962-2.392-6.012-4.686-9.142-6.854a53.144,53.144,0,0,0-7.706-4.665c-3.627-1.685-7.473-2.889-11.186-4.394-3.743-1.517-7.44-3.149-11.57-4.906a18.483,18.483,0,0,1,2.31-.752c5.107-.856,9.5-3.411,13.941-5.836a27,27,0,0,0,2.855-1.658,5.721,5.721,0,0,0,1.052-1.434l-.422-.566-6.293,3.424-.28-.379c.271-.3.527-.615.817-.894,1.518-1.461,3.019-2.94,4.584-4.349.5-.447,1.233-.622,1.742-1.059a5.234,5.234,0,0,0,.836-1.31c-.486-.081-1.109-.389-1.43-.2a19.3,19.3,0,0,0-2.195,1.81c-3.321,2.742-6.545,5.616-10,8.173-3.124,2.311-6.991,2.591-10.715,3.1a8.066,8.066,0,0,1-1.944-.365c.817-.713,1.268-1.184,1.794-1.548,2.059-1.427,4.17-2.781,6.207-4.238,1.405-1.005,1.312-1.532-.743-2.376l6.357-3.206-.087-.514-3.284-.245c.112-2.389,2.215-4.721.51-7.34a64.469,64.469,0,0,1-1.886,6.593,13.152,13.152,0,0,1-2.419,3.33c-1.779,2.1-3.638,4.124-5.436,6.205-.506.585-.8,1.032-1.821.642a4.158,4.158,0,0,0-2.714.447,72.266,72.266,0,0,1-18.667,5.025c-4.415.621-8.864.992-13.294,1.509-1.482.173-2.946.524-4.43.639a1.838,1.838,0,0,1-1.507-.649c-.179-.349.162-1.115.481-1.544a25.622,25.622,0,0,0,4.554-8.758,5.325,5.325,0,0,0,.2-1.771c-.031-.358-.394-.686-.608-1.027-.273.3-.74.564-.79.895a20.944,20.944,0,0,1-3.594,8.2,34.954,34.954,0,0,1-12.591,11.612,73.7,73.7,0,0,1-19.9,7.952c-3.88.857-7.851,1.554-11.735.138-2.973-1.084-6.181-1.885-8.333-4.476-2.439-2.937-5.4-5.662-5.067-9.989a2.312,2.312,0,0,1,1.029-1.552c2.114-1.222,4.283-2.352,6.479-3.422a6.7,6.7,0,0,1,2.127-.419c.641-.075,1.307.024,1.939-.086,1.626-.283,3.245-.614,4.854-.982a3.8,3.8,0,0,0,1.339-.62c3.005-2.17,5.992-4.367,8.983-6.556a4.755,4.755,0,0,0,1.187-.913c.56-.816,1.464-1.781,1.361-2.573-.152-1.18-1.539-1.025-2.526-.986-1.481.058-2.958.209-4.665.337a9.025,9.025,0,0,1,1.019-1.634c3.028-3.069,6.114-6.081,9.14-9.152a18.878,18.878,0,0,1,10.14-5.21c2.549-.5,5.152-.716,7.705-1.2,4.869-.917,9.719-1.931,14.576-2.909,2.606-.525,5.26-.89,7.805-1.627,5.2-1.507,10.314-3.3,15.51-4.816,3.746-1.092,7.542-2.049,11.366-2.815,1.685-.338,3.517.127,5.243-.087,4.454-.552,8.208,1.12,12.149,2.92,5,2.28,10.324,3.837,15.525,5.66,3.058,1.072,6.132,2.1,9.225,3.066,3.157.985,6.372,1.79,9.512,2.823a62.27,62.27,0,0,1,6.561,2.607c4.049,1.864,7.99,3.971,12.085,5.722,2,.857,3.063,2.658,4.74,3.787.71.478,1.451.91,2.178,1.363l.464-.5-2.74-3.169.2-.3c.542.176,1.09.334,1.623.532,3.748,1.4,7.468,2.878,11.257,4.154a5.252,5.252,0,0,0,3.17-.089c2.536-.881,5.008-1.951,7.508-2.94,0,0,46.267-15.236,48.255-15.864.732-1.256.209-1.674-2.826-1.151s-5.755,3.139-7.743,3.558-27.25,6.756-38.947,11.331l-.041.016c-2.389.767-4.736,1.672-7.147,2.357a4.329,4.329,0,0,1-2.7-.078c-9.472-4.126-19.466-6.976-28.669-11.765-1.769-.921-3.682-1.568-5.533-2.33-2.77-1.141-5.506-2.376-8.326-3.373-2.355-.833-4.8-1.4-7.223-2.047-3.577-.952-7.147-1.935-10.751-2.775a39.788,39.788,0,0,1-11.605-4.393,10.087,10.087,0,0,0-3.882-1.518c-5.807-.632-11.625-.8-17.318.9-4.374,1.308-8.741,2.643-13.089,4.039a136.744,136.744,0,0,1-29.785,6.529c-6.6.582-13.026,1.718-18.739,5.4a4.15,4.15,0,0,1-2.109.607c-3.112.027-6.225-.108-9.337-.075a33.028,33.028,0,0,0-7.039.4c-4.929,1.144-9.777,2.64-14.643,4.045-2.506.723-4.968,1.6-7.476,2.315a4.393,4.393,0,0,1-2.192.012c-4.016-1.03-7.982-2.263-12.02-3.193-6.755-1.555-13.641-2.668-19.932-5.662a184.505,184.505,0,0,0-20.65-8.437c-9.417-2.982-34.53-13.655-34.53-13.655s-4.395-.471,2.355,2.825,32.646,12.557,34.843,13.341,12.645,6.665,17.309,8.747a77.5,77.5,0,0,0,7.583,2.564c5.1,1.291,10.263,2.312,15.389,3.5,1.593.369,3.13,1.2,4.723,1.293,2.226.124,3.966,1.222,5.886,2.04a45.693,45.693,0,0,0,6.778,2.355,47,47,0,0,0,5.08.457,10.324,10.324,0,0,0,6.936-1.58c-5.793,1.072-11.268-.13-16.854-1.781,1.117-1.738,2.164-1.912,3.463-1.024a1.84,1.84,0,0,0,1.48.133c2.009-.782,3.974-1.677,5.96-2.517,4.963-2.1,10.042-3.8,15.478-4.055,3.4-.16,6.815-.181,10.224-.222.26,0,.524.334.786.513-.177.212-.318.547-.539.612a18.148,18.148,0,0,1-2.055.422c-3.945.683-7.921,1.222-11.829,2.076-3.769.824-7.469,1.963-11.195,2.981-.622.17-1.219.43-1.827.647a2.21,2.21,0,0,0,1.633.668c3-.564,6-1.125,8.959-1.853,4.088-1.006,8.133-2.184,12.21-3.232a15.707,15.707,0,0,1,2.565-.238l.17.419c-.634.742-1.26,1.491-1.9,2.226a87.587,87.587,0,0,1-12.554,12.177c-4.576,3.494-9.445,6.6-14.173,9.9-.39.271-.932.662-.968,1.039a21.725,21.725,0,0,0-.007,3.7,14.5,14.5,0,0,0,4.526,9.262,5.753,5.753,0,0,1,1.61,1.93,2.614,2.614,0,0,0,1.824,1.764c1.691.673,3.011,1.632,3.354,3.663a4.36,4.36,0,0,0,2.483,3.546c3.076,1.316,5.925,2.8,9.562,2.962,5.326.242,9.838-1.523,14.03-4.11,3.85-2.376,7.2-5.557,10.776-8.382.393-.311.808-.6,1.182-.928,2.134-1.883,4.321-3.713,6.359-5.694.978-.951,1.81-1.733,3.334-1.57a14.574,14.574,0,0,0,3.278-.321c2.082-.262,4.166-.512,6.24-.82a74.3,74.3,0,0,0,8.882-1.459c4.975-1.374,9.837-3.152,14.772-4.681,1.841-.571,3.644-1.118,5.669-.141,3.2,1.547,6.517,2.879,9.85,4.126,5.352,2,10.806,3.74,16.119,5.839,2.366.934,4.913,1.782,6.7,3.9l-1.211.748a44.776,44.776,0,0,0,5.259,4.6,77.242,77.242,0,0,0,9.368,5.083c10.109,4.617,18.584,11.679,27.5,18.086,2.525,1.814,4.951,3.8,7.615,5.378,6.161,3.657,12.408,7.176,18.683,10.635,4.316,2.378,6.953,6.15,8.935,10.43a36.29,36.29,0,0,0,8.754,11.927c2.1,1.88,4.259,3.715,6.446,5.57l.027.063s4.266,7.427,5.468,11.679l.006,0c.826,2.6,2.341,5.032,2.25,8.111-.762-.463-1.248-.789-1.76-1.064-2.082-1.117-1.906-.976-3.378.972a96.872,96.872,0,0,1-7.688,9.182,10.843,10.843,0,0,0-3,5.225c-.174.736-.434,1.452-.681,2.265-.736-.4-1.193-.715-1.694-.92a22.486,22.486,0,0,1-9.25-7.468,22.288,22.288,0,0,0-1.671-2.484c-1.651-1.609-3.362-3.156-5.084-4.691v-.01a23.49,23.49,0,0,0-2.658-3.217,30.265,30.265,0,0,0-8.376-6.372,2.821,2.821,0,0,1-1.275-1.109,6.483,6.483,0,0,1-.295-1.938,22.016,22.016,0,0,0,5.807-.324c3.963-.6,9.719-6.513,9.719-6.513h0c.65-.608,1.045-1.622,1.957-1.691l-.955,2.144.844.678a6.208,6.208,0,0,1,.467-1.278,31.945,31.945,0,0,1,2.524-3.71c1.221-1.428.843-2.633-.149-3.945l-6.411,8.13c-4.11,5.212-11.92,5.843-12.788,5.3a6.5,6.5,0,0,0-1.11-.472c-1.273-.291-1.92.227-2.125,1.544-.129.825-.62,1.589-.8,2.411a1.451,1.451,0,0,0,.328,1.226c2.341,1.79,4.729,3.522,7.121,5.247.4.289.8.57,1.2.847h0s5.573,5.5,6.956,6.072q3.037,2.994,6.055,6.008c.564.564.508,1.041.134,1.83a26.6,26.6,0,0,1-8.407,9.668,14.292,14.292,0,0,1-6.539,2.789c-2.508.4-5,.925-7.513,1.285a4.683,4.683,0,0,1-2.488-.231,37.084,37.084,0,0,1-4.717-2.634c-1.975-1.283-3.758-2.9-5.818-4.006-2.5-1.345-5.2-2.311-7.81-3.442-.811-.352-1.619-.71-2.428-1.065l.1-.6c1.3-.243,2.6-.513,3.915-.708a1.126,1.126,0,0,1,.931.273c.866,1.345,2,.956,3.06.466a27.712,27.712,0,0,0,11.342-9.385c.169-.243.441-.553.4-.781l.614-.818c.362-1.008,1-1.866.793-2.394-.487-1.251.188-1.576,1.014-2.045,1.161-.658,2.374-4.136,1.911-5.838a14.839,14.839,0,0,0-.893,1.232,11.989,11.989,0,0,1-1.6,2.849,4.319,4.319,0,0,0-1.15,1.8v-.054l-1.4,2.232c-1.936,2.218-3.926,4.622-6.058,6.895-1.616,1.722-3.4,3.329-5.817,3.845-1.618.346-3.278.505-4.923.709a3.149,3.149,0,0,1-1.036-.149c-1.8-.41-3.6-.793-5.388-1.264a13.963,13.963,0,0,1-3.344-1.141c-5.046-2.864-10.015-5.866-15.059-8.734-3.482-1.98-6.976-3.96-10.585-5.689-4.294-2.058-8.661-3.99-13.1-5.711-4.1-1.59-8.323-2.874-12.525-4.19a16.3,16.3,0,0,0-3.282-.346l-.134.521a8.021,8.021,0,0,0,1.325.638c1.594.446,3.193.881,4.809,1.237,8.63,1.9,16.193,6.129,23.467,10.909,3.687,2.423,7,5.44,10.759,7.719,5.1,3.085,10.422,5.8,15.734,8.511,2.846,1.451,5.87,2.553,8.813,3.815,2.528,1.083,5.1,2.072,7.571,3.281,2.747,1.345,5.384,2.914,8.091,4.343,1.806.954,2.658,2.664,1.722,4.43a40.808,40.808,0,0,1-4.187,6.572,18.365,18.365,0,0,1-8.94,5.608c-1.662.537-3.94.864-5.356.142a34.722,34.722,0,0,0-12.14-3.732c-.956-.1-1.9-.288-3.071-.469l2.1-1.939-.182-.324-1.379.252c2-2.2,4.1-4.412,6.074-6.729a31,31,0,0,0,2.711-3.963c.159-.261-.124-.793-.2-1.2-.351.2-.816.314-1.037.611-1.765,2.356-3.338,4.874-5.25,7.1-3.3,3.846-7.249,6.482-12.7,5.451a.324.324,0,0,0-.149-.007c-1.974.635-3.285-.687-4.5-1.76-4.1-3.614-9.018-5.63-14.118-7.148a72.677,72.677,0,0,1-14.611-5.842c-3.547-1.963-6.919-4.275-10.568-6.012a8.6,8.6,0,0,1-4.84-5.239c-.176-.515-.622-.947-.758-1.465-.3-1.147-2.1-1.934-.86-3.473.064-.079-.073-.409-.2-.54-1.11-1.129-2.216-2.266-3.385-3.332-.238-.217-.74-.143-1.12-.2l-.382.6,1.525.561c-1.112,2.465-1.019,2.764.525,4.382a4.2,4.2,0,0,1,.976,1.754,9.99,9.99,0,0,0,5.56,7.049,57.108,57.108,0,0,1,7.51,4.021,96.068,96.068,0,0,0,18.16,8.892c4.874,1.916,9.488,4.5,14.2,6.825a56.418,56.418,0,0,0,5.578,2.911,36.166,36.166,0,0,0,5.856,1.155c1.87.338,2.116.7,1.247,2.344-3.273,6.207-7.758,10.963-15.031,12.289-.391.071-.79.1-1.53.186,1.8-1.534,3.24-2.837,4.757-4.046a12.392,12.392,0,0,0,4.27-6.9,3.265,3.265,0,0,0-.234-1.874,1.229,1.229,0,0,0-1.073-.5c-.252.044-.495.605-.592.976a13.856,13.856,0,0,1-.776,3.279c-2.865,5.06-6.646,8.946-12.931,9.3-.34.019-.667.228-1.008.259a9.949,9.949,0,0,1-1.269-.036,3.256,3.256,0,0,1,.251-1.237q2.315-3.239,4.737-6.4c.793-1.032,1.757-1.936,2.516-2.99a4.231,4.231,0,0,0,.333-1.621c-.524.142-1.234.114-1.54.452a78.575,78.575,0,0,0-5.221,6.154,47.356,47.356,0,0,0-2.783,4.976c-.119.212-.387.342-.9.771a7.62,7.62,0,0,1,.336-2.524c1.213-2.043,2.562-4.008,3.915-5.964a13.511,13.511,0,0,1,1.5-1.575l-.379-.425a11.059,11.059,0,0,0-1.462.829,12.962,12.962,0,0,0-5.128,8.229c-.12.713-.346,1.35-1.2,1.19-3.138-.587-6.389-.876-9.373-1.92-7.557-2.645-14.826-6.1-22.789-7.579-1.661-.307-3.393-.7-4.276-2.837-1.305-3.158-4.177-4.254-7.483-4.216-.246,0-.672.191-.7.347a2.1,2.1,0,0,0,.1,1.273c.228.42.734.678,1.048,1.064a45.389,45.389,0,0,1,3.408,4.341,18.027,18.027,0,0,1,2.621,8.69c.032.548.789,1.054,1.211,1.58.521-.431,1.378-.785,1.5-1.307a28.666,28.666,0,0,0,.512-4.551c.072-1.147.014-2.3.014-3.452l.581-.174a20.094,20.094,0,0,1,.721,1.936c.241.911.334,1.861.583,2.769.755,2.743,1.548,5.474,2.342,8.205a4.972,4.972,0,0,0,.624,1.65c1.136,1.47,1.1,1.648-.552,2.439-4.115,1.97-8.214,3.974-12.317,5.971-2.989,1.455-5.949,2.081-9.229.648-4.548-1.986-9.228-3.668-13.825-5.544A18.009,18.009,0,0,1-494,487.294a20.462,20.462,0,0,1-3.65-4.564c-2.7-4.1-5.3-8.269-7.934-12.418a9.863,9.863,0,0,1-.542-1.147l.241-.311c2.6,2.068,5.223,4.1,8.752,3.82a13.358,13.358,0,0,0-2.368-1.282c-3.01-1.44-6.09-2.684-8.038-5.734-1.91-2.989-2.289-7.505-.228-10.4a68.411,68.411,0,0,1,5.027-5.954c1.272-1.413,2.706-2.677,4.012-4.062,3.5-3.713,6.084-8.071,8.711-12.4,2.074-3.421,4.26-6.775,6.389-10.163a6.182,6.182,0,0,0,.31-.914,7.089,7.089,0,0,0-1.6.924,33.565,33.565,0,0,0-3.468,4.143c-1.925,2.994-3.571,6.168-5.494,9.164a36.472,36.472,0,0,1-4.257,5.575c-2.356,2.456-5.059,4.579-7.435,7.017s-4.918,4.7-5.187,8.588c-.233,3.367-.355,6.649,1.318,9.637,2.1,3.752,4.448,7.366,6.655,11.06a2.112,2.112,0,0,1,.286,1.362c-.034.175-.766.315-1.174.3a37.564,37.564,0,0,1-11.813-2.8c-1.5-.556-3.207-.96-4.355-1.963a49.272,49.272,0,0,1-5.6-6.061c-2.152-2.644-4.147-5.416-6.168-8.164-1.006-1.367-1.917-2.8-2.871-4.208a23.253,23.253,0,0,1,3.849,1.634c.244.116.628-.063.947-.106-.1-.3-.111-.732-.318-.864-1.507-.972-3.073-1.852-4.577-2.828a4,4,0,0,1-1.555-1.431,38.346,38.346,0,0,1-1.669-4.821,26.728,26.728,0,0,1-.525-3.1l.443-.119a42.635,42.635,0,0,0,2.653,5.141c1.781,2.571,3.144,3.39,4.522,3.279-.015-.094,0-.236-.051-.273-2.954-2.035-4.492-4.972-5.568-8.3a22.116,22.116,0,0,0-2.282-3.963,19.872,19.872,0,0,1,1.834-3.607c2.612-3.419,5.35-6.746,8.12-10.041,1.124-1.337,2.535-2.433,3.677-3.758,1.525-1.769,2.908-3.66,4.368-5.487a19.45,19.45,0,0,0,2.493-3.094c1.523-3.053,5.294-3.49,6.9-6.394.138.27.164.421.108.531-1.43,2.8-2.858,5.611-4.32,8.4a1.569,1.569,0,0,1-.806.79c-1.085.269-1.057.924-.708,1.712a9.542,9.542,0,0,0,1.256,2.526c1.688,1.9,3.54,3.661,5.292,5.509,1.512,1.594,3.545,2.152,5.467,3,2.846,1.262,4.835,1.223,6.749-1.225,2.988-3.822,5.692-7.868,8.5-11.83,1.294-1.827,1.39-3.211-.171-5.376a22.864,22.864,0,0,0-7.239-6.373c-2.175-1.283-4.511-2.292-6.926-3.5a9.544,9.544,0,0,1,.973-.732c3.241-1.828,8.447-1.215,11.334,1.243,1.059.9,2.247,1.652,3.384,2.459,1.7,1.206,3.386,2.5,3.737,4.688.481,3,.749,6.034,1.133,9.05a3.658,3.658,0,0,0,.374.9c.318-.18.791-.281.931-.553a10.6,10.6,0,0,0,.926-8.461c-1.333-3.743-4.284-6.511-7.544-8.52a16.926,16.926,0,0,0-11.743-2.681c-2.483.413-5.118.381-7.16,2.335-2.6,2.487-5.231,4.95-7.982,7.267a73.244,73.244,0,0,0-10.8,11.7c-.39.508-.691,1.084-1.034,1.629l-.6-.345a9.089,9.089,0,0,1-.537-1.454c-1.021-5.389-3.8-9.556-8.885-11.734a40.123,40.123,0,0,0-9.735-2.949,31.541,31.541,0,0,0-8.634.423c-3.012.4-5.146,2.511-7.417,4.356-2.45,1.992-4.084,4.2-3.61,7.563a28.235,28.235,0,0,1,.029,3.9,76.436,76.436,0,0,1-4.51-6.591c-2.61-4.073-6.423-6.7-10.734-8.629a4.206,4.206,0,0,0-2.62.122,4.635,4.635,0,0,1-5.206-1.723c-1.454-2.285-2.712-4.712-4.337-6.865a21.162,21.162,0,0,0-4.957-5.145c-2.872-1.869-6.237-2.965-9.2-4.712a25.367,25.367,0,0,0-9.061-2.959,2.941,2.941,0,0,0-.924.158l-.183.476c1.645.958,3.19,2.426,4.955,2.774,4.379.862,7.139,4.164,10.691,6.268a3.055,3.055,0,0,1-1.546-.389,37.206,37.206,0,0,0-4.347-2.237c-3.305-1.174-6.691-2.117-10.027-3.206l-.037-.013s-16.812-4.758-27.014-8.185-5.755,0-5.755,0l33.089,11.726c.774.3,1.545.614,2.305.95,2.868,1.271,5.783,2.3,8.981,2.068a2.642,2.642,0,0,1,2.575,1.372c2.247,3.126,4.646,6.141,6.986,9.2.348.455.688.916,1.031,1.374-1.068.811-2.22,1.333-2.826,2.225a50.621,50.621,0,0,0-2.912,5.372c-.665,1.293-.146,2.168,1.188,2.9.5-.991.942-1.933,1.446-2.839a13.253,13.253,0,0,1,9.975-7.018c5.845-.777,10.593,1.77,14.23,6.442A55.88,55.88,0,0,1-568.5,427.69a20.862,20.862,0,0,1,1.835,5.861,94.848,94.848,0,0,1,.244,9.924,1.832,1.832,0,0,1-.766,1.216c-.8.574-1.81.882-2.536,1.523a9.4,9.4,0,0,1-9.232,2.1,28.932,28.932,0,0,1-9.682-4.745c-1.208-.907-2.465-1.75-3.7-2.622a3.315,3.315,0,0,0,.331,1.831,14.574,14.574,0,0,0,8.94,7.542c2.082.691,4.251,1.115,6.341,1.785a16.718,16.718,0,0,0,10.535-.042c1.31-.432,1.527-.032,1.906.931,1.2,3.042,2.549,5.94,5.3,8.022a62.112,62.112,0,0,0,15.083,8.025c3.074,1.205,6.217,2.236,9.335,3.327,3.026,1.06,6.074,2.061,9.082,3.169a4.135,4.135,0,0,1,2,1.319,15.271,15.271,0,0,0,9.961,6.649,33.563,33.563,0,0,0,11.965.6,1.714,1.714,0,0,1,1.936.969c1.22,1.933,2.133,4.159,4.283,5.329,1.84,1,3.687,2.016,5.613,2.829s3.958,1.431,5.965,2.063c3.867,1.216,7.726,2.469,11.641,3.508a6.128,6.128,0,0,0,3.356-.351c2.223-.777,4.358-1.8,6.541-2.695,5.429-2.223,10.739-4.845,16.331-6.53,6.039-1.821,12.036-3.956,18.489-4.371,2.553-.164,5.026-1.384,7.6-.111a.407.407,0,0,0,.149.008,52.31,52.31,0,0,0,6.892.334,33.765,33.765,0,0,0,8.663-1.471c2.577-.915,4.845-2.72,7.217-4.185a11.673,11.673,0,0,0,4.523-5.661c.683-1.616,1.371-3.231,1.986-4.872.3-.807.741-1.116,1.591-.912,4.182,1.008,8.36,2.037,12.56,2.969a8.8,8.8,0,0,0,3.791.305,97.757,97.757,0,0,0,11.085-3.271,18.05,18.05,0,0,0,5.38-3.443c2.665-2.352,3.839-5.538,4.273-9.048.338-2.733.417-2.648,3.1-2.239a8.235,8.235,0,0,0,3.69-.131c2.84-.942,5.608-2.114,8.368-3.281a14.523,14.523,0,0,0,8.241-7.7c.459-1.079,1.019-1,1.988-.444a38.149,38.149,0,0,0,6.024,2.907,12.267,12.267,0,0,0,3.99.3c3.529.01,7.085.036,9.83-2.757a40.724,40.724,0,0,0,3.294-3.5,18.946,18.946,0,0,0,3.052-4.709c2.423-6.565,1.1-12.908-1.632-19.106,0,0-1.1-.569,1.065-1.471.884-.367,1.526-.637,2.17-.9,2.636-1.086,5.275-2.161,7.905-3.26,0,0,16.866-6.958,17.18-7.238s4.185-8.928,4.185-11.126,4.29-4.918,9.312-6.7S-259.3,381.42-259.3,381.42Zm-260.19-68.039c2.964-2.13,5.874-4.336,8.879-6.407a10.581,10.581,0,0,1,3.026-1.24,40.029,40.029,0,0,1,4.208-.961,5.771,5.771,0,0,1,1.655.278,7.26,7.26,0,0,1-.916,1.081c-2.175,1.593-4.583,2.937-6.5,4.789-2.6,2.5-5.8,2.866-9.026,3.415-.771.131-1.534.311-2.3.47l-.551-.632A11.481,11.481,0,0,0-519.488,313.382Zm121,20.562,4.776,3.785A5.9,5.9,0,0,1-398.488,333.944Zm.316,93.5c2.818-.246,13.594,6.459,13.609,8.68ZM-506.525,404.82a1.927,1.927,0,0,1,2.637-.665,49.093,49.093,0,0,1,5.641,3.389c2.523,1.875,4.856,4,7.3,5.986a1.737,1.737,0,0,1,.444,2.611c-2.953,4.473-5.746,9.088-9.953,12.543a15.432,15.432,0,0,1-3.47,1.561c-1.473-.781-3.2-1.243-4.253-2.349a80.051,80.051,0,0,1-5.965-7.483,2.329,2.329,0,0,1-.157-1.808A40.82,40.82,0,0,1-506.525,404.82Zm-58.606,13.51c.009-.175.163-.342.312-.637,2.177,1.017,4.206,1.983,6.25,2.917,3.913,1.789,8.113,2.143,12.323,2.342,1.043.049,1.5.245,1.646,1.377s.833,2.21,1.019,3.353a13.13,13.13,0,0,1-.052,3.246,12.946,12.946,0,0,1-.507,1.409c-1.018,4.651-4.582,4.968-8.136,4.331a15.266,15.266,0,0,1-4.883-1.381,19.978,19.978,0,0,1-4.82-3.977C-565.307,427.6-565.378,422.974-565.131,418.33Zm26.881,47.75c-.571-2.231-2.448-1.312-3.835-1.616-1.292-.283-2.56-.674-3.839-1.017q.006-.264.01-.528a20.121,20.121,0,0,0,2.862-.955,8.227,8.227,0,0,0,1.909-1.547c.108-.1-.02-.569-.167-.775a.678.678,0,0,0-.651-.007c-2.514,1.975-5.261.713-7.915.57a22.138,22.138,0,0,1-2.938-.452,13.232,13.232,0,0,1-8.978-6.09,18.341,18.341,0,0,1-2.272-8,106.094,106.094,0,0,1,.246-14.808,8.68,8.68,0,0,0,.452,1.251c2.665,4.916,7.337,6.068,12.362,6.693a6.51,6.51,0,0,0,6.438-2.722,13.275,13.275,0,0,0,1.928-4.833,20.731,20.731,0,0,0,.309-5.084,9.064,9.064,0,0,0-.816-2.308,7.372,7.372,0,0,1-.308-1.413,15.2,15.2,0,0,0-.328-2.2c-1.149,2.124-2.795,1.309-4.3,1.04-3.6-.642-7.218-1.182-10.76-2.047a24.042,24.042,0,0,1-4.888-2.25c-1.158-.585-1.059-1.315-.279-2.283,4.872-6.044,11.4-7.225,18.562-6.22,5.967.838,12,6.8,13.048,12.708a34.075,34.075,0,0,1,.342,5.531,3.167,3.167,0,0,1-.667,1.627c-2.364,3.473-4.853,6.865-7.093,10.415a5.222,5.222,0,0,0-.528,3.463c.844,4.414,1.2,8.995,3.456,13.013a74.8,74.8,0,0,0,4.163,6.424c1.961,2.776,4.038,5.469,6.055,8.206a8.563,8.563,0,0,1,.527,1.13Zm235.842-35.9c-1.43,4.67-4.542,8.04-8.286,10.9a8.42,8.42,0,0,1-2.541.929,18.157,18.157,0,0,1-2.628-.476,1.175,1.175,0,0,1-.552-.991,9.826,9.826,0,0,1,2.44-5.351c2.816-3.033,5.489-6.2,8.147-9.377,1.1-1.313,1.278-1.325,2.52-.145C-301.893,427.021-301.876,428.447-302.408,430.184Zm5.378-26.487c-.831.419-1.768.64-1.748,1.933,0,.231-1.088.678-1.653.647-.374-.021-.711-.716-1.11-1.16l-2.3,1.036.064.039c-.409-.055-.85-.122-1.278-.2.1-.952.832-1.2,1.437-1.406,2.8-.945,5.633-1.767,8.462-2.609.169-.05.4.116.831.252C-295.37,402.8-296.188,403.271-297.03,403.7Z" transform="translate(652.647 -265.251)"/></g><g transform="translate(-711.204 205.75)"><path class="a" d="M-706.178,278.233" transform="translate(706.178 -278.233)"/></g><g transform="translate(-645.149 163.788)"><line class="b" x2="4.758" y2="5.745" transform="translate(1.539 1.538)"/><path class="a" d="M-592.56,218.879a1.537,1.537,0,0,1-1.186-.557l-4.758-5.745a1.538,1.538,0,0,1,.2-2.167,1.54,1.54,0,0,1,2.167.2l4.758,5.744a1.538,1.538,0,0,1-.2,2.167A1.529,1.529,0,0,1-592.56,218.879Z" transform="translate(598.858 -210.057)"/></g><g transform="translate(-630.752 177.739)"><line class="b" x2="4.698" y2="4.924" transform="translate(1.539 1.539)"/><path class="a" d="M-569.229,240.724a1.533,1.533,0,0,1-1.113-.476l-4.7-4.924a1.538,1.538,0,0,1,.051-2.175,1.537,1.537,0,0,1,2.175.051l4.7,4.924a1.538,1.538,0,0,1-.051,2.175A1.533,1.533,0,0,1-569.229,240.724Z" transform="translate(575.466 -232.723)"/></g><g transform="translate(-616.675 190.869)"><path class="a" d="M-550.095,256.557c4.572,3.693,12.1,9.437,12.1,9.437" transform="translate(551.634 -255.018)"/><path class="a" d="M-538.956,266.572a1.531,1.531,0,0,1-.932-.316c-.076-.057-7.6-5.8-12.135-9.464a1.538,1.538,0,0,1-.23-2.163,1.538,1.538,0,0,1,2.164-.23c4.5,3.637,11.993,9.354,12.068,9.412a1.538,1.538,0,0,1,.29,2.157A1.538,1.538,0,0,1-538.956,266.572Z" transform="translate(552.595 -254.056)"/></g><g transform="translate(-608.687 133.834)"><path class="a" d="M-537.117,163.89c3.149,3.385,6.3,6.463,6.3,6.463" transform="translate(538.656 -162.351)"/><path class="a" d="M-531.779,170.93a1.533,1.533,0,0,1-1.075-.438c-.032-.031-3.213-3.142-6.351-6.515a1.538,1.538,0,0,1,.078-2.175,1.538,1.538,0,0,1,2.175.078c3.089,3.32,6.217,6.38,6.248,6.41a1.538,1.538,0,0,1,.025,2.176A1.533,1.533,0,0,1-531.779,170.93Z" transform="translate(539.617 -161.39)"/></g><g transform="translate(-597.536 148.4)"><path class="a" d="M-519,187.557c4.1,4.1,14.156,15.387,14.156,15.387" transform="translate(520.539 -186.018)"/><path class="a" d="M-505.8,203.522a1.536,1.536,0,0,1-1.15-.515c-.1-.113-10.071-11.3-14.1-15.323a1.539,1.539,0,0,1,0-2.176,1.539,1.539,0,0,1,2.176,0c4.087,4.088,13.806,14.99,14.217,15.451a1.539,1.539,0,0,1-.126,2.173A1.532,1.532,0,0,1-505.8,203.522Z" transform="translate(521.5 -185.057)"/></g><g transform="translate(-579.481 169.533)"><path class="a" d="M-489.667,221.89a72.367,72.367,0,0,1,7.181,8.206" transform="translate(491.205 -220.351)"/><path class="a" d="M-483.446,230.674a1.536,1.536,0,0,1-1.238-.623,71.29,71.29,0,0,0-7-8,1.538,1.538,0,0,1-.062-2.175,1.538,1.538,0,0,1,2.175-.062,72.942,72.942,0,0,1,7.361,8.411,1.538,1.538,0,0,1-.323,2.152A1.533,1.533,0,0,1-483.446,230.674Z" transform="translate(492.167 -219.39)"/></g><g transform="translate(-576.814 98.545)"><line class="b" x2="3.283" y2="5.334" transform="translate(1.539 1.539)"/><path class="a" d="M-483.011,112.469a1.538,1.538,0,0,1-1.312-.732L-487.6,106.4a1.539,1.539,0,0,1,.5-2.117,1.541,1.541,0,0,1,2.117.5l3.282,5.335a1.539,1.539,0,0,1-.5,2.117A1.533,1.533,0,0,1-483.011,112.469Z" transform="translate(487.834 -104.057)"/></g><g transform="translate(-569.839 111.47)"><line class="b" x2="14.156" y2="23.389" transform="translate(1.539 1.539)"/><path class="a" d="M-460.8,151.523a1.538,1.538,0,0,1-1.318-.742l-14.156-23.389a1.538,1.538,0,0,1,.52-2.113,1.538,1.538,0,0,1,2.113.519l14.156,23.389a1.538,1.538,0,0,1-.52,2.113A1.53,1.53,0,0,1-460.8,151.523Z" transform="translate(476.501 -125.055)"/></g><g transform="translate(-551.374 143.681)"><line class="b" x2="7.796" y2="12.413" transform="translate(1.539 1.539)"/><path class="a" d="M-437.164,192.88a1.538,1.538,0,0,1-1.3-.721l-7.8-12.412a1.539,1.539,0,0,1,.484-2.122,1.538,1.538,0,0,1,2.122.484l7.8,12.413a1.539,1.539,0,0,1-.485,2.122A1.534,1.534,0,0,1-437.164,192.88Z" transform="translate(446.501 -177.389)"/></g><g transform="translate(-553.015 117.01)"><line class="b" x2="9.438" y2="15.593" transform="translate(1.539 1.539)"/><path class="a" d="M-438.189,152.726a1.537,1.537,0,0,1-1.318-.742l-9.437-15.592a1.539,1.539,0,0,1,.519-2.113,1.538,1.538,0,0,1,2.113.519l9.437,15.593a1.539,1.539,0,0,1-.519,2.113A1.531,1.531,0,0,1-438.189,152.726Z" transform="translate(449.167 -134.056)"/></g><g transform="translate(-541.32 138.347)"><line class="b" x2="8.617" y2="13.746" transform="translate(1.539 1.539)"/><path class="a" d="M-420.009,185.547a1.538,1.538,0,0,1-1.305-.722l-8.617-13.746a1.539,1.539,0,0,1,.487-2.121,1.538,1.538,0,0,1,2.121.487l8.617,13.746a1.539,1.539,0,0,1-.487,2.121A1.533,1.533,0,0,1-420.009,185.547Z" transform="translate(430.167 -168.723)"/></g><g transform="translate(-512.392 120.908)"><path class="a" d="M-380.667,142.89c1.026,5.335,1.846,9.232,1.846,9.232" transform="translate(382.206 -141.351)"/><path class="a" d="M-379.783,152.7a1.54,1.54,0,0,1-1.5-1.222c-.008-.039-.835-3.972-1.852-9.259a1.539,1.539,0,0,1,1.221-1.8,1.539,1.539,0,0,1,1.8,1.221c1.011,5.26,1.833,9.167,1.841,9.206a1.538,1.538,0,0,1-1.189,1.822A1.533,1.533,0,0,1-379.783,152.7Z" transform="translate(383.167 -140.39)"/></g><g transform="translate(-509.52 134.859)"><line class="b" x2="1.641" y2="10.361" transform="translate(1.539 1.54)"/><path class="a" d="M-375.322,176.495a1.539,1.539,0,0,1-1.518-1.3l-1.641-10.361a1.539,1.539,0,0,1,1.279-1.761,1.538,1.538,0,0,1,1.76,1.279l1.642,10.361a1.539,1.539,0,0,1-1.279,1.76A1.556,1.556,0,0,1-375.322,176.495Z" transform="translate(378.5 -163.055)"/></g><g transform="translate(-506.442 150.863)"><line class="b" x2="0.821" y2="6.565" transform="translate(1.539 1.538)"/><path class="a" d="M-371.142,198.7a1.539,1.539,0,0,1-1.525-1.348l-.82-6.565a1.538,1.538,0,0,1,1.336-1.718,1.538,1.538,0,0,1,1.717,1.336l.821,6.565a1.538,1.538,0,0,1-1.336,1.718A1.574,1.574,0,0,1-371.142,198.7Z" transform="translate(373.5 -189.057)"/></g><g transform="translate(-451.868 89.723)"><line class="b" y2="22.979" transform="translate(1.539 1.539)"/><path class="a" d="M-283.294,115.779a1.539,1.539,0,0,1-1.539-1.539V91.262a1.539,1.539,0,0,1,1.539-1.539,1.539,1.539,0,0,1,1.539,1.539v22.979A1.539,1.539,0,0,1-283.294,115.779Z" transform="translate(284.833 -89.723)"/></g><g transform="translate(-451.868 121.934)"><line class="b" y2="8.207" transform="translate(1.539 1.539)"/><path class="a" d="M-283.294,153.341a1.539,1.539,0,0,1-1.539-1.539V143.6a1.539,1.539,0,0,1,1.539-1.539,1.539,1.539,0,0,1,1.539,1.539V151.8A1.539,1.539,0,0,1-283.294,153.341Z" transform="translate(284.833 -142.057)"/></g><g transform="translate(-454.125 140.296)"><line class="b" y2="25.338" transform="translate(1.539 1.539)"/><path class="a" d="M-286.961,200.306a1.539,1.539,0,0,1-1.539-1.539V173.429a1.539,1.539,0,0,1,1.539-1.539,1.539,1.539,0,0,1,1.539,1.539v25.338A1.539,1.539,0,0,1-286.961,200.306Z" transform="translate(288.5 -171.89)"/></g><g transform="translate(-396.064 128.294)"><line class="b" x1="5.334" y2="16.926" transform="translate(1.539 1.539)"/><path class="a" d="M-192.628,172.393a1.533,1.533,0,0,1-.463-.071,1.538,1.538,0,0,1-1.005-1.93l5.335-16.926a1.537,1.537,0,0,1,1.93-1.005,1.538,1.538,0,0,1,1.005,1.93l-5.334,16.926A1.539,1.539,0,0,1-192.628,172.393Z" transform="translate(194.167 -152.389)"/></g><g transform="translate(-401.808 149.887)"><line class="b" x1="3.693" y2="12.669" transform="translate(1.539 1.54)"/><path class="a" d="M-201.961,203.219a1.524,1.524,0,0,1-.431-.062,1.538,1.538,0,0,1-1.046-1.907l3.693-12.669a1.536,1.536,0,0,1,1.908-1.046,1.538,1.538,0,0,1,1.046,1.907l-3.693,12.669A1.539,1.539,0,0,1-201.961,203.219Z" transform="translate(203.501 -187.472)"/></g><g transform="translate(-364.673 133.833)"><line class="b" x1="11.284" y2="19.132" transform="translate(1.539 1.539)"/><path class="a" d="M-141.629,183.6a1.533,1.533,0,0,1-.78-.214,1.539,1.539,0,0,1-.543-2.107l11.284-19.131a1.538,1.538,0,0,1,2.107-.543,1.539,1.539,0,0,1,.543,2.107L-140.3,182.842A1.539,1.539,0,0,1-141.629,183.6Z" transform="translate(143.167 -161.389)"/></g><g transform="translate(-371.444 160.71)"><line class="b" x1="2.872" y2="6.155" transform="translate(1.539 1.539)"/><path class="a" d="M-152.629,214.289a1.53,1.53,0,0,1-.65-.145,1.539,1.539,0,0,1-.744-2.045l2.872-6.155a1.539,1.539,0,0,1,2.045-.744,1.539,1.539,0,0,1,.744,2.045l-2.873,6.155A1.539,1.539,0,0,1-152.629,214.289Z" transform="translate(154.167 -205.056)"/></g><g transform="translate(-376.368 171.789)"><line class="b" x1="1.641" y2="4.103" transform="translate(1.539 1.539)"/><path class="a" d="M-160.628,230.238a1.544,1.544,0,0,1-.571-.11,1.539,1.539,0,0,1-.857-2l1.642-4.1a1.54,1.54,0,0,1,2-.857,1.539,1.539,0,0,1,.857,2l-1.641,4.1A1.54,1.54,0,0,1-160.628,230.238Z" transform="translate(162.167 -223.056)"/></g><g transform="translate(-342.31 163.787)"><line class="b" x1="9.643" y2="8.001" transform="translate(1.539 1.539)"/><path class="a" d="M-105.294,221.136a1.535,1.535,0,0,1-1.185-.556,1.538,1.538,0,0,1,.2-2.167l9.643-8a1.537,1.537,0,0,1,2.167.2,1.538,1.538,0,0,1-.2,2.167l-9.643,8A1.532,1.532,0,0,1-105.294,221.136Z" transform="translate(106.834 -210.056)"/></g><g transform="translate(-316.87 178.355)"><line class="b" x1="11.284" y2="5.334" transform="translate(1.539 1.539)"/><path class="a" d="M-63.961,242.135a1.538,1.538,0,0,1-1.392-.881,1.538,1.538,0,0,1,.734-2.048l11.284-5.335a1.54,1.54,0,0,1,2.049.734,1.539,1.539,0,0,1-.734,2.049L-63.3,241.987A1.534,1.534,0,0,1-63.961,242.135Z" transform="translate(65.5 -233.724)"/></g><g transform="translate(-339.438 186.972)"><line class="b" x1="16.824" y2="8.822" transform="translate(1.539 1.539)"/><path class="a" d="M-100.627,259.623a1.537,1.537,0,0,1-1.363-.824,1.538,1.538,0,0,1,.647-2.077l16.823-8.822a1.539,1.539,0,0,1,2.077.648,1.538,1.538,0,0,1-.647,2.077l-16.823,8.822A1.53,1.53,0,0,1-100.627,259.623Z" transform="translate(102.167 -247.723)"/></g><g transform="translate(-300.405 374.031)"><line class="b" x2="9.848" y2="8.925" transform="translate(1.539 1.539)"/><path class="a" d="M-27.364,563.642a1.535,1.535,0,0,1-1.033-.4l-9.848-8.925a1.539,1.539,0,0,1-.107-2.174,1.539,1.539,0,0,1,2.174-.107l9.848,8.925a1.539,1.539,0,0,1,.107,2.174A1.535,1.535,0,0,1-27.364,563.642Z" transform="translate(38.75 -551.639)"/></g><g transform="translate(-284.71 387.264)"><line class="b" x2="5.847" y2="5.078" transform="translate(1.539 1.539)"/><path class="a" d="M-5.865,581.3a1.532,1.532,0,0,1-1.008-.377l-5.847-5.078a1.54,1.54,0,0,1-.153-2.172,1.54,1.54,0,0,1,2.171-.153l5.847,5.078a1.54,1.54,0,0,1,.153,2.172A1.539,1.539,0,0,1-5.865,581.3Z" transform="translate(13.25 -573.14)"/></g><g transform="translate(-272.554 396.804)"><line class="b" x2="7.54" y2="6.617" transform="translate(1.539 1.539)"/><path class="a" d="M15.578,598.334a1.532,1.532,0,0,1-1.014-.382l-7.54-6.617a1.539,1.539,0,0,1,2.03-2.313l7.54,6.617a1.539,1.539,0,0,1-1.016,2.7Z" transform="translate(-6.5 -588.64)"/></g><g transform="translate(-324.102 398.958)"><line class="b" x2="5.386" y2="6.001" transform="translate(1.539 1.539)"/><path class="a" d="M-70.325,601.219a1.535,1.535,0,0,1-1.146-.511l-5.386-6a1.539,1.539,0,0,1,.118-2.173,1.539,1.539,0,0,1,2.173.117l5.386,6a1.539,1.539,0,0,1-.118,2.173A1.532,1.532,0,0,1-70.325,601.219Z" transform="translate(77.25 -592.14)"/></g><g transform="translate(-311.792 412.192)"><line class="b" x2="16.311" y2="17.388" transform="translate(1.539 1.539)"/><path class="a" d="M-39.4,634.105a1.533,1.533,0,0,1-1.122-.486l-16.311-17.388a1.538,1.538,0,0,1,.07-2.174,1.538,1.538,0,0,1,2.175.07l16.311,17.388a1.538,1.538,0,0,1-.07,2.175A1.535,1.535,0,0,1-39.4,634.105Z" transform="translate(57.25 -613.64)"/></g><g transform="translate(-348.26 404.959)"><line class="b" x2="6.001" y2="7.232" transform="translate(1.539 1.539)"/><path class="a" d="M-108.96,612.2a1.536,1.536,0,0,1-1.185-.556l-6-7.232a1.539,1.539,0,0,1,.2-2.167,1.538,1.538,0,0,1,2.167.2l6,7.232a1.539,1.539,0,0,1-.2,2.167A1.528,1.528,0,0,1-108.96,612.2Z" transform="translate(116.5 -601.889)"/></g><g transform="translate(-339.027 415.884)"><line class="b" x2="27.236" y2="32.775" transform="translate(1.539 1.539)"/><path class="a" d="M-72.725,655.492a1.538,1.538,0,0,1-1.184-.555l-27.236-32.775a1.539,1.539,0,0,1,.2-2.167,1.539,1.539,0,0,1,2.167.2l27.236,32.775a1.539,1.539,0,0,1-.2,2.167A1.534,1.534,0,0,1-72.725,655.492Z" transform="translate(101.5 -619.639)"/></g><g transform="translate(-303.636 458.815)"><line class="b" x2="5.232" y2="6.155" transform="translate(1.539 1.539)"/><path class="a" d="M-37.229,698.622a1.535,1.535,0,0,1-1.173-.542l-5.232-6.155a1.539,1.539,0,0,1,.176-2.169,1.538,1.538,0,0,1,2.169.176l5.232,6.155a1.539,1.539,0,0,1-.176,2.169A1.531,1.531,0,0,1-37.229,698.622Z" transform="translate(44 -689.39)"/></g><g transform="translate(-362.108 429.58)"><line class="b" x2="13.849" y2="18.003" transform="translate(1.539 1.538)"/><path class="a" d="M-123.611,662.971a1.535,1.535,0,0,1-1.221-.6l-13.849-18a1.538,1.538,0,0,1,.281-2.157,1.539,1.539,0,0,1,2.157.281l13.849,18a1.538,1.538,0,0,1-.281,2.157A1.529,1.529,0,0,1-123.611,662.971Z" transform="translate(139 -641.891)"/></g><g transform="translate(-339.027 458.816)"><line class="b" x2="4.616" y2="6.155" transform="translate(1.539 1.539)"/><path class="a" d="M-95.344,698.622a1.536,1.536,0,0,1-1.232-.615l-4.616-6.155a1.539,1.539,0,0,1,.308-2.154,1.539,1.539,0,0,1,2.154.308l4.616,6.155a1.539,1.539,0,0,1-.308,2.154A1.533,1.533,0,0,1-95.344,698.622Z" transform="translate(101.5 -689.39)"/></g><g transform="translate(-420.581 456.354)"><line class="b" x2="4.924" y2="7.232" transform="translate(1.539 1.538)"/><path class="a" d="M-227.536,695.7a1.537,1.537,0,0,1-1.273-.673l-4.924-7.232a1.538,1.538,0,0,1,.406-2.138,1.539,1.539,0,0,1,2.138.406l4.924,7.232a1.538,1.538,0,0,1-.406,2.138A1.531,1.531,0,0,1-227.536,695.7Z" transform="translate(234 -685.39)"/></g><g transform="translate(-411.348 471.279)"><line class="b" x2="4.77" y2="7.386" transform="translate(1.539 1.539)"/><path class="a" d="M-212.69,720.1a1.536,1.536,0,0,1-1.294-.7l-4.77-7.386a1.539,1.539,0,0,1,.458-2.128,1.538,1.538,0,0,1,2.127.459l4.77,7.386a1.539,1.539,0,0,1-.458,2.128A1.534,1.534,0,0,1-212.69,720.1Z" transform="translate(219 -709.639)"/></g><g transform="translate(-402.885 484.512)"><line class="b" x2="17.696" y2="29.236" transform="translate(1.539 1.539)"/><path class="a" d="M-186.015,763.453a1.538,1.538,0,0,1-1.318-.742l-17.7-29.236a1.539,1.539,0,0,1,.52-2.114,1.538,1.538,0,0,1,2.113.52l17.7,29.236a1.539,1.539,0,0,1-.52,2.114A1.529,1.529,0,0,1-186.015,763.453Z" transform="translate(205.251 -731.139)"/></g><g transform="translate(-423.043 478.665)"><line class="b" x2="4.924" y2="9.386" transform="translate(1.539 1.539)"/><path class="a" d="M-231.536,734.1a1.538,1.538,0,0,1-1.364-.825l-4.924-9.386a1.539,1.539,0,0,1,.648-2.077,1.538,1.538,0,0,1,2.077.648l4.924,9.386a1.539,1.539,0,0,1-.648,2.077A1.533,1.533,0,0,1-231.536,734.1Z" transform="translate(238 -721.639)"/></g><g transform="translate(-413.964 496.206)"><line class="b" x2="9.848" y2="17.542" transform="translate(1.539 1.54)"/><path class="a" d="M-211.862,770.758a1.538,1.538,0,0,1-1.343-.785l-9.848-17.542a1.539,1.539,0,0,1,.588-2.1,1.537,1.537,0,0,1,2.1.588l9.848,17.542a1.539,1.539,0,0,1-.588,2.1A1.533,1.533,0,0,1-211.862,770.758Z" transform="translate(223.251 -750.138)"/></g><g transform="translate(-458.741 484.512)"><line class="b" x2="6.617" y2="29.236" transform="translate(1.539 1.539)"/><path class="a" d="M-287.846,763.454a1.539,1.539,0,0,1-1.5-1.2l-6.617-29.236a1.538,1.538,0,0,1,1.161-1.84,1.539,1.539,0,0,1,1.84,1.161l6.617,29.236a1.538,1.538,0,0,1-1.161,1.84A1.548,1.548,0,0,1-287.846,763.454Z" transform="translate(296 -731.14)"/></g><g transform="translate(-450.586 520.826)"><line class="b" x2="2.616" y2="9.694" transform="translate(1.539 1.539)"/><path class="a" d="M-278.6,802.912a1.539,1.539,0,0,1-1.485-1.139l-2.616-9.694a1.539,1.539,0,0,1,1.085-1.887,1.539,1.539,0,0,1,1.887,1.085l2.616,9.694a1.539,1.539,0,0,1-1.085,1.887A1.537,1.537,0,0,1-278.6,802.912Z" transform="translate(282.751 -790.139)"/></g><g transform="translate(-446.124 537.598)"><line class="b" x2="3.847" y2="16.465" transform="translate(1.539 1.54)"/><path class="a" d="M-270.116,836.932a1.54,1.54,0,0,1-1.5-1.19l-3.847-16.464a1.54,1.54,0,0,1,1.148-1.848,1.538,1.538,0,0,1,1.849,1.149l3.847,16.465a1.54,1.54,0,0,1-1.148,1.848A1.571,1.571,0,0,1-270.116,836.932Z" transform="translate(275.501 -817.389)"/></g><g transform="translate(-490.132 486.974)"><line class="b" x1="2.308" y2="16.772" transform="translate(1.539 1.539)"/><path class="a" d="M-345.46,754.99a1.646,1.646,0,0,1-.212-.014,1.54,1.54,0,0,1-1.315-1.734l2.308-16.772a1.537,1.537,0,0,1,1.734-1.315,1.54,1.54,0,0,1,1.315,1.734l-2.308,16.772A1.54,1.54,0,0,1-345.46,754.99Z" transform="translate(347.001 -735.139)"/></g><g transform="translate(-494.133 512.364)"><line class="b" x1="2.308" y2="19.08" transform="translate(1.539 1.539)"/><path class="a" d="M-351.96,798.548a1.464,1.464,0,0,1-.186-.012,1.538,1.538,0,0,1-1.343-1.712l2.308-19.08a1.536,1.536,0,0,1,1.712-1.342,1.538,1.538,0,0,1,1.343,1.712l-2.308,19.08A1.539,1.539,0,0,1-351.96,798.548Z" transform="translate(353.5 -776.39)"/></g><g transform="translate(-520.291 478.666)"><line class="b" x1="4.77" y2="14.31" transform="translate(1.539 1.539)"/><path class="a" d="M-394.462,739.029a1.546,1.546,0,0,1-.487-.079,1.539,1.539,0,0,1-.973-1.947l4.77-14.31a1.541,1.541,0,0,1,1.947-.973,1.539,1.539,0,0,1,.973,1.947l-4.77,14.31A1.541,1.541,0,0,1-394.462,739.029Z" transform="translate(396.001 -721.64)"/></g><g transform="translate(-524.292 500.054)"><line class="b" x1="1.385" y2="5.847" transform="translate(1.539 1.539)"/><path class="a" d="M-400.96,765.315a1.541,1.541,0,0,1-.356-.042,1.539,1.539,0,0,1-1.143-1.852l1.385-5.847a1.54,1.54,0,0,1,1.852-1.143,1.539,1.539,0,0,1,1.143,1.852l-1.385,5.847A1.54,1.54,0,0,1-400.96,765.315Z" transform="translate(402.501 -756.39)"/></g><g transform="translate(-536.14 517.133)"><line class="b" x1="8.463" y2="25.851" transform="translate(1.539 1.54)"/><path class="a" d="M-420.212,813.068a1.529,1.529,0,0,1-.479-.077,1.539,1.539,0,0,1-.984-1.941l8.463-25.851a1.538,1.538,0,0,1,1.941-.984,1.539,1.539,0,0,1,.984,1.941l-8.463,25.851A1.54,1.54,0,0,1-420.212,813.068Z" transform="translate(421.751 -784.139)"/></g><g transform="translate(-542.911 469.894)"><line class="b" x1="3.077" y2="7.386" transform="translate(1.539 1.539)"/><path class="a" d="M-431.212,717.854a1.543,1.543,0,0,1-.591-.119,1.539,1.539,0,0,1-.829-2.013l3.078-7.386a1.539,1.539,0,0,1,2.012-.828,1.54,1.54,0,0,1,.829,2.013l-3.077,7.386A1.54,1.54,0,0,1-431.212,717.854Z" transform="translate(432.751 -707.39)"/></g><g transform="translate(-548.758 484.512)"><line class="b" x1="2.462" y2="5.386" transform="translate(1.539 1.54)"/><path class="a" d="M-440.712,739.6a1.528,1.528,0,0,1-.639-.14,1.538,1.538,0,0,1-.76-2.039l2.462-5.386a1.538,1.538,0,0,1,2.04-.76,1.538,1.538,0,0,1,.76,2.039l-2.462,5.386A1.539,1.539,0,0,1-440.712,739.6Z" transform="translate(442.251 -731.139)"/></g><g transform="translate(-557.99 494.052)"><line class="b" x1="7.232" y2="14.464" transform="translate(1.539 1.54)"/><path class="a" d="M-455.713,764.182a1.528,1.528,0,0,1-.687-.163,1.538,1.538,0,0,1-.688-2.064l7.232-14.464a1.537,1.537,0,0,1,2.064-.688,1.538,1.538,0,0,1,.688,2.064l-7.232,14.464A1.539,1.539,0,0,1-455.713,764.182Z" transform="translate(457.251 -746.639)"/></g><g transform="translate(-594.458 445.582)"><line class="b" x1="11.541" y2="18.311" transform="translate(1.539 1.539)"/><path class="a" d="M-514.963,689.279a1.531,1.531,0,0,1-.819-.237,1.539,1.539,0,0,1-.481-2.122l11.541-18.311a1.54,1.54,0,0,1,2.122-.481,1.539,1.539,0,0,1,.481,2.122L-513.66,688.56A1.537,1.537,0,0,1-514.963,689.279Z" transform="translate(516.5 -667.89)"/></g><g transform="translate(-602.768 470.818)"><line class="b" x1="4.308" y2="7.848" transform="translate(1.539 1.539)"/><path class="a" d="M-528.463,719.815a1.529,1.529,0,0,1-.739-.19,1.538,1.538,0,0,1-.608-2.089l4.308-7.848a1.539,1.539,0,0,1,2.089-.608,1.538,1.538,0,0,1,.608,2.089l-4.308,7.848A1.538,1.538,0,0,1-528.463,719.815Z" transform="translate(530 -708.89)"/></g><g transform="translate(-618.617 484.512)"><line class="b" x1="11.541" y2="16.772" transform="translate(1.539 1.539)"/><path class="a" d="M-554.213,750.989a1.535,1.535,0,0,1-.871-.271,1.539,1.539,0,0,1-.4-2.14l11.541-16.772a1.539,1.539,0,0,1,2.14-.4,1.539,1.539,0,0,1,.4,2.14l-11.541,16.772A1.537,1.537,0,0,1-554.213,750.989Z" transform="translate(555.75 -731.139)"/></g><g transform="translate(-625.695 448.506)"><line class="b" x1="12.156" y2="17.08" transform="translate(1.539 1.539)"/><path class="a" d="M-565.713,692.8a1.532,1.532,0,0,1-.891-.285,1.539,1.539,0,0,1-.361-2.146l12.156-17.08a1.54,1.54,0,0,1,2.146-.362,1.539,1.539,0,0,1,.361,2.146l-12.156,17.08A1.536,1.536,0,0,1-565.713,692.8Z" transform="translate(567.25 -672.64)"/></g><g transform="translate(-633.388 468.663)"><line class="b" x1="4.462" y2="6.078" transform="translate(1.539 1.539)"/><path class="a" d="M-578.213,714.545a1.53,1.53,0,0,1-.909-.3,1.539,1.539,0,0,1-.33-2.151l4.462-6.078a1.538,1.538,0,0,1,2.151-.331,1.539,1.539,0,0,1,.33,2.151l-4.462,6.078A1.537,1.537,0,0,1-578.213,714.545Z" transform="translate(579.75 -705.39)"/></g><g transform="translate(-639.39 478.665)"><line class="b" x1="3.539" y2="5.847" transform="translate(1.539 1.539)"/><path class="a" d="M-587.963,730.565a1.529,1.529,0,0,1-.8-.222,1.539,1.539,0,0,1-.52-2.114l3.539-5.847a1.539,1.539,0,0,1,2.113-.519,1.539,1.539,0,0,1,.52,2.114l-3.539,5.847A1.539,1.539,0,0,1-587.963,730.565Z" transform="translate(589.501 -721.64)"/></g><g transform="translate(-642.929 419.885)"><line class="b" x1="10.771" y2="13.233" transform="translate(1.539 1.539)"/><path class="a" d="M-593.712,642.45a1.531,1.531,0,0,1-.971-.346,1.538,1.538,0,0,1-.222-2.164l10.771-13.233a1.537,1.537,0,0,1,2.165-.222,1.538,1.538,0,0,1,.222,2.164l-10.771,13.233A1.533,1.533,0,0,1-593.712,642.45Z" transform="translate(595.25 -626.139)"/></g><g transform="translate(-652.623 438.658)"><line class="b" x1="6.309" y2="8.617" transform="translate(1.539 1.539)"/><path class="a" d="M-609.463,668.335a1.535,1.535,0,0,1-.908-.3,1.539,1.539,0,0,1-.332-2.151l6.309-8.617a1.54,1.54,0,0,1,2.151-.333,1.539,1.539,0,0,1,.332,2.151l-6.309,8.617A1.536,1.536,0,0,1-609.463,668.335Z" transform="translate(611 -656.64)"/></g><g transform="translate(-657.239 403.575)"><line class="b" x1="10.002" y2="12.002" transform="translate(1.539 1.539)"/><path class="a" d="M-616.962,614.719a1.532,1.532,0,0,1-.985-.356,1.539,1.539,0,0,1-.2-2.168l10-12a1.539,1.539,0,0,1,2.167-.2,1.539,1.539,0,0,1,.2,2.168l-10,12A1.536,1.536,0,0,1-616.962,614.719Z" transform="translate(618.5 -599.64)"/></g><g transform="translate(-667.702 419.116)"><line class="b" x1="6.309" y2="7.386" transform="translate(1.539 1.539)"/><path class="a" d="M-633.962,635.353a1.53,1.53,0,0,1-1-.369,1.539,1.539,0,0,1-.17-2.17l6.309-7.386a1.539,1.539,0,0,1,2.17-.17,1.539,1.539,0,0,1,.17,2.17l-6.309,7.386A1.537,1.537,0,0,1-633.962,635.353Z" transform="translate(635.5 -624.89)"/></g><g transform="translate(-686.013 432.195)"><line class="b" x1="13.079" y2="15.08" transform="translate(1.539 1.539)"/><path class="a" d="M-663.712,664.3a1.533,1.533,0,0,1-1.008-.376,1.539,1.539,0,0,1-.154-2.171l13.079-15.08a1.539,1.539,0,0,1,2.171-.154,1.539,1.539,0,0,1,.154,2.171l-13.079,15.08A1.536,1.536,0,0,1-663.712,664.3Z" transform="translate(665.25 -646.14)"/></g><g transform="translate(-693.861 382.648)"><line class="b" x1="6.155" y2="6.155" transform="translate(1.539 1.539)"/><path class="a" d="M-676.461,574.872a1.534,1.534,0,0,1-1.088-.451,1.539,1.539,0,0,1,0-2.176l6.155-6.155a1.539,1.539,0,0,1,2.176,0,1.539,1.539,0,0,1,0,2.176l-6.155,6.155A1.535,1.535,0,0,1-676.461,574.872Z" transform="translate(678 -565.64)"/></g><g transform="translate(-712.018 394.497)"><line class="b" x1="14.618" y2="15.08" transform="translate(1.539 1.538)"/><path class="a" d="M-705.961,603.047a1.533,1.533,0,0,1-1.071-.434,1.539,1.539,0,0,1-.034-2.176l14.618-15.08a1.539,1.539,0,0,1,2.176-.034,1.539,1.539,0,0,1,.034,2.176l-14.618,15.08A1.534,1.534,0,0,1-705.961,603.047Z" transform="translate(707.5 -584.891)"/></g><g transform="translate(-719.25 415.578)"><line class="b" x1="3.231" y2="3.539" transform="translate(1.539 1.538)"/><path class="a" d="M-717.711,625.757a1.535,1.535,0,0,1-1.038-.4,1.54,1.54,0,0,1-.1-2.175l3.231-3.539a1.541,1.541,0,0,1,2.174-.1,1.54,1.54,0,0,1,.1,2.175l-3.231,3.539A1.535,1.535,0,0,1-717.711,625.757Z" transform="translate(719.25 -619.141)"/></g></g></svg>