<svg xmlns="http://www.w3.org/2000/svg" xmlns:xlink="http://www.w3.org/1999/xlink" width="1920" height="2140" viewBox="0 0 1920 2140"><defs><style>.a{fill:#fff;}.b{clip-path:url(#a);}.c{filter:url(#b);}</style><clipPath id="a"><rect class="a" width="1920" height="2140"/></clipPath><filter id="b" x="532.413" y="-392.981" width="1765.489" height="2497.138" filterUnits="userSpaceOnUse"><feOffset dy="3" input="SourceAlpha"/><feGaussianBlur stdDeviation="49.5" result="c"/><feFlood flood-opacity="0.059"/><feComposite operator="in" in2="c"/><feComposite in="SourceGraphic"/></filter></defs><g class="b"><g transform="translate(36.385 -2415.166)"><g transform="translate(644.528 2167.685)"><g transform="translate(0 0)"><path class="a" d="M-343.629,369.395v303.49l441.347-234.4Z" transform="translate(343.633 805.341)"/><g class="c" transform="matrix(1, 0, 0, 1, -680.91, 247.48)"><path class="a" d="M563.4,245.778H-343.629v540.7L209.354,492.791,408.519,867.8l-475,252.268,664.206,103.983,199.165,375L-343.629,2204.786v241.13H563.4c310.085,0,561.46-251.375,561.46-561.459V807.238C1124.859,497.153,873.485,245.778,563.4,245.778Z" transform="translate(1024.54 -493.26)"/></g></g></g></g></g></svg>