<svg xmlns="http://www.w3.org/2000/svg" width="49.979" height="50" viewBox="0 0 49.979 50"><defs><style>.a{fill:#fff;}</style></defs><path class="a" d="M572.063,545.6c.948.127,1.9.214,2.843.387a24.645,24.645,0,0,1,16.647,11,23.544,23.544,0,0,1,3.912,11.109A24.508,24.508,0,0,1,588.8,587.7a24,24,0,0,1-14.246,7.566,25.016,25.016,0,0,1-28.437-19.6c-.221-1.029-.292-2.091-.435-3.137-.021-.158-.058-.313-.087-.47v-2.929a3.367,3.367,0,0,0,.082-.42,23.6,23.6,0,0,1,2.853-9.847,24.649,24.649,0,0,1,17.707-12.872c.954-.183,1.927-.265,2.891-.394Zm21.266,24.986a22.731,22.731,0,1,0-22.719,22.742A22.765,22.765,0,0,0,593.329,570.586Z" transform="translate(-545.6 -545.6)"/><path class="a" d="M669.437,676.9a13.333,13.333,0,0,0,9.424,4.765,15.637,15.637,0,0,1,.361-2.47,4.6,4.6,0,0,1,6.324-2.653,4.252,4.252,0,0,1,1.064.676.809.809,0,0,0,.953.2c.766-.29,1.533-.575,2.317-.868a4.717,4.717,0,0,1-1.8,2.313l.055.106,2.277-.608.1.083c-.571.591-1.112,1.218-1.727,1.759a1.226,1.226,0,0,0-.479,1.023,13.025,13.025,0,0,1-10.585,12.784,13.22,13.22,0,0,1-9.371-1.533c-.084-.048-.167-.1-.246-.156-.022-.015-.032-.048-.075-.118a9.569,9.569,0,0,0,6.709-1.921,4.9,4.9,0,0,1-2.668-.922,4.493,4.493,0,0,1-1.644-2.286H672.3c-2.451-1.13-3.562-2.557-3.491-4.563l1.818.5.074-.134a4.635,4.635,0,0,1-1.787-2.7A4.455,4.455,0,0,1,669.437,676.9Z" transform="translate(-653.084 -660.169)"/></svg>