<svg xmlns="http://www.w3.org/2000/svg" width="181.967" height="181.961" viewBox="0 0 181.967 181.961"><defs><style>.a{fill:#f4952b;}</style></defs><g transform="translate(-355.5 -56.89)"><path class="a" d="M446.483,101.89a46,46,0,1,0,32.268,13.232A45.983,45.983,0,0,0,446.483,101.89Zm33.984,45.983a33.962,33.962,0,0,1-58.238,23.772l48.026-48.026A33.874,33.874,0,0,1,480.467,147.873Z"/><path class="a" d="M446.483,56.89A90.981,90.981,0,0,0,446,238.851V209.845a62.225,62.225,0,1,1,51-26.122V203.39h21.564a90.981,90.981,0,0,0-72.081-146.5Z"/></g></svg>