<svg xmlns="http://www.w3.org/2000/svg" width="49.979" height="50" viewBox="0 0 49.979 50"><defs><style>.a{fill:#fff;}</style></defs><path class="a" d="M572.063,545.6c.948.127,1.9.214,2.843.387a24.645,24.645,0,0,1,16.647,11,23.544,23.544,0,0,1,3.912,11.109A24.508,24.508,0,0,1,588.8,587.7a24,24,0,0,1-14.246,7.566,25.016,25.016,0,0,1-28.437-19.6c-.221-1.029-.292-2.091-.435-3.137-.021-.158-.058-.313-.087-.47v-2.929a3.367,3.367,0,0,0,.082-.42,23.6,23.6,0,0,1,2.853-9.847,24.649,24.649,0,0,1,17.707-12.872c.954-.183,1.927-.265,2.891-.394ZM570.6,593.328A22.731,22.731,0,1,0,547.867,570.6,22.762,22.762,0,0,0,570.6,593.328Z" transform="translate(-545.6 -545.6)"/><path class="a" d="M736.64,734.853h-4.493V722.4h4.471v1.587a8.18,8.18,0,0,1,1.632-1.188c1.711-.694,3.78-.672,5.036.815a5.037,5.037,0,0,1,1.214,3.13c.074,2.679.024,5.361.024,8.084H740.05c0-.161,0-.333,0-.5,0-2.017,0-4.034-.006-6.051a7.256,7.256,0,0,0-.075-1.117,1.415,1.415,0,0,0-1.139-1.351,1.614,1.614,0,0,0-1.791.883,4.42,4.42,0,0,0-.381,1.635c-.044,1.983-.017,3.968-.017,5.953Z" transform="translate(-709.377 -700.784)"/><path class="a" d="M680.633,722.72v12.433h-4.492V722.72Z" transform="translate(-660.207 -701.101)"/><path class="a" d="M678.186,680.517a2.262,2.262,0,1,1,2.329-2.188A2.254,2.254,0,0,1,678.186,680.517Z" transform="translate(-660.077 -660.079)"/></svg>